# xmcd
#
# Track frame offsets:
#	150
#	5137
#	56822
#	125498
#	168832
#	182874
#
# Disc length: 2820 seconds
#
# Revision: 0
# Processed by: cddbd v1.4PL0 Copyright (c) Steve Scherf et al.
# Submitted via: audiograbber 1.81.02
#
DISCID=4f0b0206
DTITLE=Allman Brothers - 1970-07-03 Disc2
DYEAR=1900
DGENRE=
TTITLE0=Banter - Tuning
TTITLE1=In Memory of Elizabeth Reed
TTITLE2=Whipping Post
TTITLE3=Mountain Jam
TTITLE4=Stage Announcements
TTITLE5=Encore
EXTD=
EXTT0=
EXTT1=
EXTT2=
EXTT3=
EXTT4=
EXTT5=
PLAYORDER=
